<svg width="1046" height="1080" viewBox="0 0 1046 1080" fill="none" xmlns="http://www.w3.org/2000/svg">
<path d="M773.327 -180.498C877.007 -167.309 971.849 -117.532 1057.63 -57.7616C1141.2 0.459942 1216.27 72.1396 1264.64 161.823C1311.74 249.128 1309.8 351.236 1330.6 448.251C1353.36 554.447 1426.5 660.238 1393.65 763.752C1360.9 866.965 1236.81 907.087 1160.6 983.934C1084.32 1060.84 1043.99 1182.26 942.144 1219C840.331 1255.71 730.421 1198.44 624.272 1177.36C525.423 1157.73 421.471 1152.56 336.266 1098.68C251.199 1044.89 198.332 955.837 141.973 872.391C84.34 787.059 9.67794 704.578 0.777729 601.954C-8.09512 499.646 61.2159 409.721 93.3904 312.211C126.018 213.329 126 100.063 192.738 20.1868C260.476 -60.8871 365.658 -98.6013 465.451 -133.095C564.844 -167.451 669.016 -193.768 773.327 -180.498Z" fill="#01A884"/>
</svg>
